<svg xmlns="http://www.w3.org/2000/svg" fill="none" viewBox="0 0 24 24">
  <path stroke="#000" stroke-linecap="round" d="M10 12C10 13.1046 9.10457 14 8 14C6.89543 14 6 13.1046 6 12M10 12C10 10.8954 9.10457 10 8 10C6.89543 10 6 10.8954 6 12M10 12H20M6 12H4M18.0001 5.93698C18.0001 7.04155 17.1047 7.93698 16.0001 7.93698C14.8955 7.93698 14.0001 7.04155 14.0001 5.93698M18.0001 5.93698C18.0001 4.83241 17.1047 3.93698 16.0001 3.93698C14.8955 3.93698 14.0001 4.83241 14.0001 5.93698M18.0001 5.93698H20.0001M14.0001 5.93698L4.00011 6M18 17.937C18 19.0416 17.1046 19.937 16 19.937C14.8954 19.937 14 19.0416 14 17.937M18 17.937C18 16.8324 17.1046 15.937 16 15.937C14.8954 15.937 14 16.8324 14 17.937M18 17.937H20M14 17.937L4 18"/>
</svg>
